<svg xmlns="http://www.w3.org/2000/svg" width="19.974" height="25" viewBox="0 0 19.974 25">
  <g id="Icon_ionic-ios-notifications-outline" data-name="Icon ionic-ios-notifications-outline" transform="translate(-6.775 -3.93)">
    <path id="패스_48" data-name="패스 48" d="M19.738,28.336a.809.809,0,0,0-.794.637,1.566,1.566,0,0,1-.312.681,1.181,1.181,0,0,1-1.006.369,1.2,1.2,0,0,1-1.006-.369,1.566,1.566,0,0,1-.312-.681.809.809,0,0,0-.794-.637h0a.815.815,0,0,0-.794.994,2.792,2.792,0,0,0,2.906,2.318,2.787,2.787,0,0,0,2.906-2.318.818.818,0,0,0-.794-.994Z" transform="translate(-0.882 -2.717)" fill="#333"/>
    <path id="패스_49" data-name="패스 49" d="M26.5,22.445c-.962-1.268-2.856-2.012-2.856-7.692,0-5.83-2.574-8.173-4.974-8.735-.225-.056-.387-.131-.387-.369V5.468a1.533,1.533,0,0,0-1.5-1.537h-.037a1.533,1.533,0,0,0-1.5,1.537v.181c0,.231-.162.312-.387.369-2.406.569-4.974,2.906-4.974,8.735,0,5.68-1.893,6.417-2.856,7.692a1.24,1.24,0,0,0,.994,1.987h17.5A1.241,1.241,0,0,0,26.5,22.445Zm-2.437.362H9.49a.274.274,0,0,1-.206-.456A7.57,7.57,0,0,0,10.6,20.264a14.16,14.16,0,0,0,.894-5.511A9.583,9.583,0,0,1,12.8,9.329,4.009,4.009,0,0,1,15.213,7.6a2.19,2.19,0,0,0,1.162-.656.494.494,0,0,1,.744-.012,2.264,2.264,0,0,0,1.175.669,4.009,4.009,0,0,1,2.418,1.725,9.583,9.583,0,0,1,1.306,5.424,14.16,14.16,0,0,0,.894,5.511,7.656,7.656,0,0,0,1.343,2.118A.258.258,0,0,1,24.061,22.807Z" transform="translate(0)" fill="#333"/>
  </g>
</svg>
