<svg xmlns="http://www.w3.org/2000/svg" width="23.755" height="30.062" viewBox="0 0 23.755 30.062">
  <g id="그룹_269" data-name="그룹 269" transform="translate(205.75 2102.75)">
    <path id="패스_42" data-name="패스 42" d="M23.713,4.1H5.922a.146.146,0,0,1-.132-.186l.417-1.876A2.02,2.02,0,0,1,8.061.47H21.585a2,2,0,0,1,1.843,1.558L23.845,3.9C23.866,4.024,23.812,4.1,23.713,4.1Z" transform="translate(-208.684 -2102.47)" fill="#fff" stroke="#333" stroke-linejoin="round" stroke-miterlimit="10" stroke-width="1.5"/>
    <path id="패스_43" data-name="패스 43" d="M20.24,28.771H9.359A1.56,1.56,0,0,1,8.01,27.236L5.992,5.869C5.849,4.388,6.474,3.16,7.385,3.16h14.84c.91,0,1.525,1.228,1.393,2.709L21.6,27.236A1.578,1.578,0,0,1,20.24,28.771Z" transform="translate(-208.666 -2102.209)" fill="#fff" stroke="#333" stroke-linejoin="round" stroke-miterlimit="10" stroke-width="1.5"/>
    <path id="패스_44" data-name="패스 44" d="M25.248,5.957H4.758a.885.885,0,0,1-.888-.888V4.048a.885.885,0,0,1,.888-.888H25.237a.885.885,0,0,1,.888.888v1.02A.869.869,0,0,1,25.248,5.957Z" transform="translate(-208.87 -2102.209)" fill="#fff" stroke="#333" stroke-linejoin="round" stroke-miterlimit="10" stroke-width="1.5"/>
    <ellipse id="타원_2" data-name="타원 2" cx="0.142" cy="0.141" rx="0.142" ry="0.141" transform="translate(-196.602 -2088.8)" fill="#333"/>
    <path id="패스_24" data-name="패스 24" d="M-468.127,4531.382c-.436-.176-.209-.894-.116-1.07a2.13,2.13,0,0,1-1.27.737c-.64,0-.936-.859-1.029-1.24-.093.381-.389,1.24-1.029,1.24a2.13,2.13,0,0,1-1.27-.737c.094.176.32.894-.116,1.07a3.013,3.013,0,0,1-1.459-.214,2.771,2.771,0,0,1,1.118,1.788,21.752,21.752,0,0,1,2.756-.2,21.753,21.753,0,0,1,2.756.2,2.771,2.771,0,0,1,1.117-1.788A3.013,3.013,0,0,1-468.127,4531.382Z" transform="translate(276.668 -6618.571)" fill="#333"/>
    <path id="패스_25" data-name="패스 25" d="M-399.905,4538.048a.141.141,0,0,0-.141.142.141.141,0,0,0,.141.14.141.141,0,0,0,.142-.14A.141.141,0,0,0-399.905,4538.048Z" transform="translate(210.343 -6625.92)" fill="#333"/>
    <ellipse id="타원_3" data-name="타원 3" cx="0.142" cy="0.141" rx="0.142" ry="0.141" transform="translate(-191.426 -2088.8)" fill="#333"/>
    <path id="패스_26" data-name="패스 26" d="M-439.753,4524.3a.141.141,0,0,0,.142-.141.141.141,0,0,0-.142-.141.141.141,0,0,0-.141.141A.141.141,0,0,0-439.753,4524.3Z" transform="translate(245.881 -6613.408)" fill="#333"/>
  </g>
</svg>
