<svg xmlns="http://www.w3.org/2000/svg" width="27" height="21.316" viewBox="0 0 27 21.316">
  <path id="confirmation_number_FILL0_wght300_GRAD0_opsz48" d="M6.6,30.316a1.577,1.577,0,0,1-1.6-1.6V23.779a4.518,4.518,0,0,0,2.149-1.563,4.117,4.117,0,0,0,.835-2.558,4.192,4.192,0,0,0-.835-2.576A4.265,4.265,0,0,0,5,15.537V10.6A1.577,1.577,0,0,1,6.6,9H30.4A1.577,1.577,0,0,1,32,10.6v4.938a4.265,4.265,0,0,0-2.149,1.545,4.192,4.192,0,0,0-.835,2.576,4.117,4.117,0,0,0,.835,2.558A4.518,4.518,0,0,0,32,23.779v4.938a1.577,1.577,0,0,1-1.6,1.6Zm0-1.6H30.4v-3.8a7.1,7.1,0,0,1-2.185-2.256,5.815,5.815,0,0,1,0-6A7.1,7.1,0,0,1,30.4,14.4V10.6H6.6v3.8a6.793,6.793,0,0,1,2.2,2.256,5.923,5.923,0,0,1,0,6,6.793,6.793,0,0,1-2.2,2.256Zm11.9-2.522a.812.812,0,0,0,.568-.231.765.765,0,0,0,.249-.586.726.726,0,0,0-.249-.551.815.815,0,0,0-1.137,0,.726.726,0,0,0-.249.551.765.765,0,0,0,.249.586A.812.812,0,0,0,18.5,26.195Zm0-5.72a.851.851,0,1,0-.568-.249A.782.782,0,0,0,18.5,20.475Zm0-5.755a.812.812,0,0,0,.568-.231.726.726,0,0,0,.249-.551.765.765,0,0,0-.249-.586.815.815,0,0,0-1.137,0,.765.765,0,0,0-.249.586.726.726,0,0,0,.249.551A.812.812,0,0,0,18.5,14.72Zm0,4.938Z" transform="translate(-5 -9)" fill="#333"/>
</svg>
