<svg xmlns="http://www.w3.org/2000/svg" width="27" height="24.833" viewBox="0 0 27 24.833">
  <path id="redeem_FILL0_wght300_GRAD0_opsz48" d="M6.6,25.7v3.126a.487.487,0,0,0,.462.462H29.939a.487.487,0,0,0,.462-.462V25.7Zm.462-14.672h4.867a3.54,3.54,0,0,1-.3-.764,3.1,3.1,0,0,1-.124-.835,3.231,3.231,0,0,1,.995-2.4,3.277,3.277,0,0,1,2.38-.977,3.228,3.228,0,0,1,1.67.462,3.7,3.7,0,0,1,1.243,1.172L18.5,8.75l.675-1.066a3.846,3.846,0,0,1,1.243-1.19,3.136,3.136,0,0,1,1.634-.444,3.291,3.291,0,0,1,2.4.959,3.244,3.244,0,0,1,.977,2.416,2.835,2.835,0,0,1-.107.746,8.97,8.97,0,0,1-.284.853h4.9a1.985,1.985,0,0,1,1.457.6,1.945,1.945,0,0,1,.6,1.421V28.822a2.062,2.062,0,0,1-2.061,2.061H7.061A2.062,2.062,0,0,1,5,28.822V13.049a1.945,1.945,0,0,1,.6-1.421A1.985,1.985,0,0,1,7.061,11.024ZM6.6,22.357H30.4V13.049a.409.409,0,0,0-.142-.284.442.442,0,0,0-.32-.142H21.022l3.3,4.618-1.279.959-4.583-6.324L13.882,18.2,12.6,17.241l3.339-4.618H7.061a.442.442,0,0,0-.32.142.409.409,0,0,0-.142.284Zm8.278-11.191a1.715,1.715,0,0,0,1.261-.515,1.674,1.674,0,0,0,.515-1.226,1.759,1.759,0,0,0-1.776-1.776,1.674,1.674,0,0,0-1.226.515,1.715,1.715,0,0,0-.515,1.261,1.759,1.759,0,0,0,1.741,1.741Zm7.176,0a1.715,1.715,0,0,0,1.261-.515,1.674,1.674,0,0,0,.515-1.226,1.759,1.759,0,0,0-1.776-1.776,1.674,1.674,0,0,0-1.226.515,1.715,1.715,0,0,0-.515,1.261,1.759,1.759,0,0,0,1.741,1.741Z" transform="translate(-5 -6.05)" fill="#333"/>
</svg>
