<svg xmlns="http://www.w3.org/2000/svg" width="23.566" height="22.568" viewBox="0 0 23.566 22.568">
  <g id="Icon_feather-shopping-cart" data-name="Icon feather-shopping-cart" transform="translate(-0.7 -0.7)">
    <path id="패스_45" data-name="패스 45" d="M14,31a1,1,0,1,1-1-1A1,1,0,0,1,14,31Z" transform="translate(-3.511 -9.529)" fill="none" stroke="#333" stroke-linecap="round" stroke-linejoin="round" stroke-width="1.6"/>
    <path id="패스_46" data-name="패스 46" d="M30.5,31a1,1,0,1,1-1-1A1,1,0,0,1,30.5,31Z" transform="translate(-9.028 -9.529)" fill="none" stroke="#333" stroke-linecap="round" stroke-linejoin="round" stroke-width="1.6"/>
    <path id="패스_47" data-name="패스 47" d="M1.5,1.5H5.494L8.17,14.869a2,2,0,0,0,2,1.608h9.7a2,2,0,0,0,2-1.608l1.6-8.377H6.492" fill="none" stroke="#333" stroke-linecap="round" stroke-linejoin="round" stroke-width="1.6"/>
  </g>
</svg>
