<svg xmlns="http://www.w3.org/2000/svg" width="27" height="24.095" viewBox="0 0 27 24.095">
  <path id="storefront_FILL0_wght300_GRAD0_opsz48" d="M29.937,17.1V28.6a2,2,0,0,1-2,2H7.8a2,2,0,0,1-2-2V17.1a3.72,3.72,0,0,1-1.274-1.928,4.152,4.152,0,0,1,.034-2.306L5.979,8.359a2.6,2.6,0,0,1,.929-1.377A2.539,2.539,0,0,1,8.458,6.5H27.183a2.672,2.672,0,0,1,1.6.482,2.557,2.557,0,0,1,.947,1.342l1.48,4.544a4.106,4.106,0,0,1,.017,2.323A3.641,3.641,0,0,1,29.937,17.1Zm-8.984-.723a2.581,2.581,0,0,0,1.91-.706,1.877,1.877,0,0,0,.6-1.6l-.929-6.024H18.681v5.886a2.5,2.5,0,0,0,.654,1.7A2.074,2.074,0,0,0,20.953,16.379Zm-6.368,0a2.431,2.431,0,0,0,1.79-.723,2.35,2.35,0,0,0,.723-1.721V8.049H13.242l-.929,6.093a1.852,1.852,0,0,0,.551,1.515A2.21,2.21,0,0,0,14.585,16.379Zm-6.23,0a2.219,2.219,0,0,0,1.583-.62,2.4,2.4,0,0,0,.757-1.515l.929-6.2H8.148a.636.636,0,0,0-.361.1.44.44,0,0,0-.189.31l-1.48,4.785a2.324,2.324,0,0,0,.293,2.134A2.2,2.2,0,0,0,8.354,16.379Zm19.035,0a2.317,2.317,0,0,0,1.91-.947,2.274,2.274,0,0,0,.361-2.186L28.147,8.428a.4.4,0,0,0-.172-.293.712.712,0,0,0-.379-.086H24.154l.895,6.2a2.569,2.569,0,0,0,.792,1.515A2.176,2.176,0,0,0,27.39,16.379ZM7.8,29.046H27.94a.458.458,0,0,0,.31-.12.412.412,0,0,0,.138-.327V17.859a.876.876,0,0,1-.4.086q-.293.017-.6.017a3.642,3.642,0,0,1-1.652-.379,4.779,4.779,0,0,1-1.446-1.17,4.311,4.311,0,0,1-1.36,1.119,4.013,4.013,0,0,1-1.91.43,3.883,3.883,0,0,1-1.687-.344,5.317,5.317,0,0,1-1.446-1.067,3.859,3.859,0,0,1-1.411,1.05,4.25,4.25,0,0,1-1.721.361,4.5,4.5,0,0,1-1.824-.361,3.391,3.391,0,0,1-1.411-1.188,6.278,6.278,0,0,1-1.738,1.2,3.726,3.726,0,0,1-1.428.344q-.275,0-.551-.017a1.473,1.473,0,0,1-.447-.086V28.6a.412.412,0,0,0,.138.327A.458.458,0,0,0,7.8,29.046Zm20.137,0h0Z" transform="translate(-4.387 -6.5)" fill="#333"/>
</svg>
